<?xml version="1.0" encoding="UTF-8"?><svg id="Layer_1" xmlns="http://www.w3.org/2000/svg" viewBox="0 0 69.39 67.4"><defs><style>.cls-1{fill:none;}.cls-1,.cls-2{stroke-width:0px;}.cls-2{fill:#d1b49c;}</style></defs><path class="cls-2" d="M22.68,31.62c-.62.44-1.16.82-1.7,1.21-.22.15-.42.32-.65.45-.78.47-1.75-.05-1.77-.96-.02-.89-.01-1.78,0-2.67,0-.46.27-.77.63-1.03,2.65-1.89,5.3-3.78,7.94-5.67,2.05-1.46,4.1-2.93,6.15-4.39.94-.67,1.88-.68,2.83,0,4.71,3.36,9.42,6.73,14.13,10.09.42.3.62.68.61,1.19-.01.78,0,1.56,0,2.34,0,.51-.19.92-.65,1.15-.45.23-.88.15-1.29-.15-.61-.44-1.23-.88-1.85-1.32-.09-.07-.19-.12-.35-.22,0,.2,0,.34,0,.48,0,5.08,0,10.16,0,15.24,0,1.04-.54,1.76-1.46,1.95-.15.03-.31.04-.46.04-6.73,0-13.45,0-20.18,0-1.18,0-1.93-.76-1.93-1.95,0-5.08,0-10.16,0-15.24,0-.15,0-.3,0-.54ZM34.68,48.19c3.3,0,6.61,0,9.91,0,.8,0,.97-.17.97-.97,0-5.33,0-10.67,0-16,0-.31-.09-.5-.34-.68-3.22-2.29-6.43-4.59-9.65-6.88-.7-.5-1.05-.5-1.75,0-3.23,2.31-6.47,4.62-9.7,6.92-.21.15-.29.3-.29.56,0,5.39,0,10.79,0,16.18,0,.65.22.87.86.87,3.33,0,6.66,0,9.98,0ZM49.69,32.32c0-.86.01-1.62-.01-2.37,0-.15-.1-.35-.22-.43-4.66-3.34-9.33-6.68-14-10.01-.57-.41-.96-.39-1.55.02-4.37,3.12-8.73,6.24-13.1,9.36-.36.26-.86.45-1.03.81-.18.37-.06.89-.07,1.34,0,.4,0,.8,0,1.25.16-.11.26-.18.36-.24,4.38-3.12,8.76-6.24,13.14-9.36,1.04-.74,1.94-.75,2.98,0,3.77,2.69,7.54,5.38,11.31,8.08.7.5,1.4,1,2.19,1.56Z"/><path class="cls-1" d="M34.68,48.19c-3.33,0-6.66,0-9.98,0-.64,0-.86-.22-.86-.87,0-5.39,0-10.79,0-16.18,0-.26.08-.41.29-.56,3.24-2.3,6.47-4.62,9.7-6.92.7-.5,1.05-.5,1.75,0,3.22,2.3,6.43,4.59,9.65,6.88.26.18.34.37.34.68,0,5.33,0,10.67,0,16,0,.8-.17.97-.97.97-3.3,0-6.61,0-9.91,0ZM36.95,45.48c1.95,0,3.43-1.16,3.87-2.89.46-1.78-.25-3.52-1.82-4.36-.28-.15-.41-.34-.51-.63-.57-1.73-2.1-2.85-3.84-2.84-1.76.01-3.13,1.09-3.71,2.92-.05.15-.2.29-.34.37-1.99,1.11-2.75,3.43-1.77,5.37.88,1.72,3.3,2.72,5.33,1.6.35-.2.71-.17,1.06.02.58.31,1.2.48,1.71.46ZM34.49,31.85c-.06-1.35-.38-2.31-1.26-3.02-.99-.79-2.35-.6-3.02.43-.91,1.41-.46,3.7.93,4.64,1.05.72,2.41.4,2.96-.75.23-.47.31-1.02.38-1.3ZM34.92,31.72c.02.17.03.41.08.64.19.89.63,1.6,1.56,1.83.95.24,1.73-.11,2.31-.88.72-.96.94-2.06.67-3.23-.2-.86-.68-1.5-1.57-1.69-.9-.2-1.65.13-2.23.85-.56.7-.78,1.52-.82,2.48ZM43.03,34.89c-.01-.15-.02-.34-.05-.53-.15-.77-.49-1.43-1.31-1.65-.86-.23-1.53.11-2.04.8-.56.75-.78,1.6-.58,2.52.15.74.54,1.34,1.33,1.56.77.22,1.39-.06,1.91-.61.54-.57.73-1.28.76-2.09ZM30.47,35.35c-.08-.95-.44-1.85-1.03-2.36-1-.87-2.41-.52-2.9.71-.42,1.06-.1,2.53.72,3.3.88.84,2.24.68,2.8-.37.21-.39.28-.85.41-1.28Z"/><path class="cls-1" d="M49.69,32.32c-.79-.56-1.49-1.06-2.19-1.56-3.77-2.69-7.54-5.39-11.31-8.08-1.04-.74-1.94-.74-2.98,0-4.38,3.12-8.76,6.24-13.14,9.36-.1.07-.2.13-.36.24,0-.45,0-.85,0-1.25,0-.45-.12-.98.07-1.34.18-.35.67-.55,1.03-.81,4.37-3.12,8.73-6.24,13.1-9.36.59-.42.98-.43,1.55-.02,4.67,3.33,9.34,6.67,14,10.01.12.09.22.28.22.43.02.75.01,1.51.01,2.37Z"/><path class="cls-2" d="M36.95,45.48c-.5.01-1.12-.15-1.71-.46-.36-.19-.71-.21-1.06-.02-2.04,1.13-4.46.12-5.33-1.6-.98-1.93-.22-4.26,1.77-5.37.14-.08.29-.22.34-.37.58-1.82,1.95-2.91,3.71-2.92,1.74-.01,3.26,1.11,3.84,2.84.1.29.22.48.51.63,1.57.84,2.28,2.58,1.82,4.36-.44,1.73-1.93,2.88-3.87,2.89ZM39.83,41.61c0-1.04-.53-1.97-1.47-2.42-.55-.27-.87-.65-1.01-1.25-.29-1.17-1.35-1.98-2.56-2-1.23-.03-2.35.73-2.67,1.9-.18.66-.51,1.07-1.12,1.38-1.29.65-1.76,2.25-1.15,3.56.55,1.19,2.14,1.97,3.46,1.33.2-.1.42-.17.63-.25.5-.2,1-.2,1.51,0,.22.09.45.17.67.27,1.57.73,3.71-.5,3.71-2.52Z"/><path class="cls-2" d="M34.49,31.85c-.08.28-.16.82-.38,1.3-.55,1.15-1.91,1.47-2.96.75-1.39-.94-1.85-3.23-.93-4.64.67-1.03,2.03-1.22,3.02-.43.88.71,1.2,1.67,1.26,3.02ZM33.33,31.71c-.05-.73-.18-1.33-.63-1.81-.63-.67-1.45-.49-1.72.39-.04.14-.07.28-.08.42-.05.76.09,1.47.64,2.03.61.63,1.38.45,1.65-.38.08-.24.1-.49.13-.65Z"/><path class="cls-2" d="M34.92,31.72c.04-.95.26-1.78.82-2.48.57-.71,1.32-1.04,2.23-.85.89.19,1.38.83,1.57,1.69.27,1.17.05,2.27-.67,3.23-.57.76-1.36,1.11-2.31.88-.93-.23-1.38-.94-1.56-1.83-.05-.23-.06-.47-.08-.64ZM36.05,31.62c.03.22.05.46.11.67.23.84,1.03,1.06,1.67.47.65-.61.88-1.89.49-2.67-.34-.67-.95-.79-1.5-.28-.53.49-.73,1.11-.76,1.82Z"/><path class="cls-2" d="M43.03,34.89c-.03.81-.21,1.52-.76,2.09-.52.56-1.15.83-1.91.61-.78-.23-1.17-.82-1.33-1.56-.19-.92.03-1.77.58-2.52.51-.68,1.19-1.03,2.04-.8.82.22,1.16.87,1.31,1.65.04.19.04.38.05.53ZM41.98,34.93s-.06-.03-.09-.04c-.01-.11-.02-.21-.04-.32-.06-.33-.15-.66-.53-.74-.38-.08-.64.14-.84.44-.32.49-.44,1.03-.28,1.58.07.24.29.52.52.63.28.13.59-.06.74-.31.22-.39.36-.82.53-1.23Z"/><path class="cls-2" d="M30.47,35.35c-.13.43-.2.89-.41,1.28-.55,1.04-1.92,1.21-2.8.37-.82-.78-1.14-2.25-.72-3.3.48-1.23,1.9-1.57,2.9-.71.59.51.95,1.41,1.03,2.36ZM27.51,34.71c.02.52.11.99.46,1.33.17.16.48.33.67.28.22-.05.46-.32.53-.54.19-.6.07-1.19-.31-1.7-.2-.28-.48-.46-.83-.36-.33.09-.44.37-.49.69-.02.12-.03.24-.04.31Z"/><path class="cls-1" d="M39.83,41.61c0,2.02-2.14,3.25-3.71,2.52-.22-.1-.44-.18-.67-.27-.5-.2-1-.2-1.51,0-.21.08-.43.15-.63.25-1.32.63-2.91-.15-3.46-1.33-.61-1.31-.14-2.91,1.15-3.56.61-.31.94-.73,1.12-1.38.31-1.17,1.43-1.93,2.67-1.9,1.2.03,2.27.83,2.56,2,.15.6.46.99,1.01,1.25.93.45,1.47,1.39,1.47,2.42Z"/></svg>