<?xml version="1.0" encoding="UTF-8"?><svg id="Layer_1" xmlns="http://www.w3.org/2000/svg" viewBox="0 0 69.39 67.4"><defs><style>.cls-1{fill:#d1b49c;stroke-width:0px;}</style></defs><path class="cls-1" d="M18.88,32.3c.29-.6.87-.35,1.26-.43.26-.62.51-1.18.72-1.75.07-.19.09-.45.02-.63-.49-1.3-.83-2.63-.79-4.03,0-.17.02-.34.06-.51.31-1.61,1.45-2.21,2.99-1.52.46.21.89.5,1.31.79.41.3.78.65,1.16.98,1.31.18,3.65,0,4.46.1.02,0-1.12.3-1.04.19.06-.09.22-.14.32-.22.73-.56,1.41-1.22,2.2-1.67,1.73-.98,3.27-.12,3.34,1.88.05,1.37-.28,2.67-.76,3.93-.05.12-.1.24-.17.41.22,0,.38,0,.54,0,2.79,0,5.57,0,8.36,0,1.5,0,2.91.29,4.2,1.08.13.08,3.47,2.24,3.46,4.9,0,.82-.04,1.59-.14,2.36-.43,3.34-3.46,6.06-6.83,6.08-5.76.04-11.52.01-17.28.01-.45,0-.7-.23-.71-.6,0-.39.28-.61.78-.61,3.92,0,7.83,0,11.75,0,.16,0,.32,0,.49,0,.03-.62.18-1.15.57-1.59.45-.5,1-.75,1.67-.76,1.01-.02,2.03.04,3.02-.08,1.72-.21,2.96-1.67,3.06-3.4.01-.19.04-.45.17-.55.16-.13.44-.2.64-.16.3.05.41.32.4.62-.04,1.34-.53,2.49-1.5,3.42-.92.89-2.04,1.34-3.31,1.36-.81.02-1.62,0-2.42,0-.67,0-1.06.42-1.06,1.14.67,0,1.34.02,2.01,0,.95-.04,1.93.02,2.85-.18,3.73-.84,5.68-5.08,3.95-8.49-.04-.08-.09-.16-.14-.25-1.88,2.5-5.23,1.95-6.48-.36-2.41,1.55-5.16-.16-5.17-2.7h-2.28c.05.23.09.46.17.68.02.07.15.13.24.14.16.02.32,0,.48,0,.35.02.59.26.6.58,0,.31-.23.58-.57.62-.21.02-.43,0-.68,0-.07.3-.13.58-.21.93.29,0,.54-.01.79,0,.41.02.67.27.67.61,0,.34-.26.58-.67.6-.07,0-.14.01-.2,0-.95-.2-1.54.22-2,1.03-.64,1.12-1.55,1.97-2.86,2.27-.43.1-.88.14-1.32.15-.95.02-1.9,0-2.88,0v1.42c.36.02,1.59-.09,2-.08,1.18.03-.7,0,3.43.03.28,0,.54.04.81.08.32.05.51.25.53.57.02.32-.17.53-.48.61-.13.03-.27.02-.4.02-2.97,0-5.95,0-8.92,0-.95,0-1.69.56-1.93,1.42-.02.08-.02.16-.04.28.66,0,1.3,0,1.94,0,.13,0,.27,0,.4.04.31.09.46.32.43.64-.03.31-.22.52-.52.52-.89.02-1.78.03-2.66,0-.5-.02-.82-.48-.82-1.03,0-1.62,1.35-3.02,2.98-3.07.66-.02,1.31,0,1.99,0v-1.51c-.16-.05-.32-.1-.48-.16-.84-.28-1.53-.77-2.08-1.47-.12-.15-.23-.3-.34-.45-.3-.41-.52-.98-.92-1.2-.4-.22-.99-.06-1.49-.13-.2-.03-.39-.16-.58-.28l-.12-.52c.37-.58.98-.33,1.5-.43-.07-.31-.14-.59-.2-.88-.48-.03-.98.1-1.28-.39l-.02-.41ZM21.43,33.12c.12.43.07.91.72.95.31.02.55.41.41.66-.17.33-.01.52.16.75.19.25.36.51.55.75.64.81,1.48,1.23,2.51,1.24,1.17,0,2.34,0,3.51,0,.7,0,1.36-.19,1.85-.67.5-.48.9-1.06,1.33-1.6.04-.05.03-.17,0-.25-.18-.55,0-.83.57-.93.12-.02.26-.12.31-.23.1-.2.14-.42.21-.66-.5-.05-1.13.1-1.16-.6-.03-.73.62-.61,1.11-.65-.03-.12-.04-.2-.08-.27-.55-1.15-1.04-2.33-1.67-3.44-.54-.95-1.45-1.42-2.55-1.45-1.14-.02-2.29-.01-3.43,0-.86,0-1.64.31-2.18.97-1.02,1.22-1.46,2.75-2.18,4.17.94.11,1.19.25,1.17.66-.02.41-.27.55-1.16.61ZM38.12,31.03c-.02.11-.03.16-.03.21.03,1.47,1.71,2.37,3.02,1.62.23-.13.48-.28.73-.31.62-.09,1.03.22,1.35.74,1.02,1.67,3.37,1.66,4.34,0,.13-.22.13-.37-.07-.55-.85-.8-1.84-1.36-2.99-1.57-.47-.09-.96-.13-1.44-.13-1.63-.02-3.25,0-4.91,0ZM21.76,28.31c.54-1.27,1.42-2.07,2.72-2.61-.67-.43-1.22-.85-1.82-1.15-.84-.42-1.25-.15-1.34.79,0,.04,0,.08,0,.12-.04.94.13,1.84.45,2.85ZM30.61,25.6c.01.06.02.11.03.17,1.2.46,2.03,1.31,2.59,2.52.34-1.12.58-2.16.38-3.25-.12-.64-.45-.86-1.04-.58-.68.32-1.31.75-1.96,1.14Z"/><path class="cls-1" d="M26.87,32.58c-.23-.25-.48-.43-.6-.67-.12-.24-.2-.56-.15-.82.05-.31.34-.48.67-.48.48,0,.97-.03,1.45,0,.65.05.93.74.53,1.26-.19.24-.41.46-.64.71.29.23.55.43.8.64.35.29.42.66.19.94-.23.28-.58.28-.93.02-.22-.17-.44-.35-.69-.55-.23.19-.45.38-.68.56-.34.27-.7.25-.93-.04-.22-.28-.17-.61.15-.88.26-.23.53-.44.84-.7Z"/><path class="cls-1" d="M25.18,30.06c-.02.2-.01.4-.06.59-.08.31-.32.47-.63.44-.31-.04-.51-.23-.53-.56-.01-.29-.02-.59,0-.88.02-.36.25-.59.58-.6.32,0,.57.22.62.56.02.14,0,.29,0,.44,0,0,.02,0,.02,0Z"/><path class="cls-1" d="M31.03,30.08c0,.16.02.32,0,.48-.04.34-.27.53-.6.53-.31,0-.54-.19-.57-.51-.03-.33-.03-.67,0-1,.03-.34.26-.53.6-.52.34,0,.55.2.58.55.02.16,0,.32,0,.48,0,0,0,0,0,0Z"/></svg>