<?xml version="1.0" encoding="UTF-8"?><svg id="Layer_1" xmlns="http://www.w3.org/2000/svg" viewBox="0 0 69.39 67.4"><defs><style>.cls-1{fill:#d1b49c;stroke-width:0px;}</style></defs><path class="cls-1" d="M49.53,38.28c-.22.43-.57.58-1.04.55-.35-.02-.7,0-1.04,0-.31,0-.48-.16-.49-.42,0-.27.17-.44.49-.44.39,0,.79,0,1.18,0,0-.82-.66-1.58-1.47-1.64-.8-.06-1.6-.03-2.4-.03-.06,0-.13.08-.19.13-.02.02-.02.06-.03.08-.2.38-.22.71.18.98.11.07.15.22.25.32.07.07.18.15.27.16.26.02.48.08.53.38.04.24-.07.38-.39.52,0,.02-.02.04-.02.05.09.72-.28,1.11-1.06,1.07-.59-.03-1.18,0-1.77,0-.02,0-.04.01-.08.03,0,.56.06,1.13-.01,1.68-.31,2.4-2.48,4.35-4.9,4.36-4.13.03-8.27,0-12.4,0-.32,0-.51-.16-.51-.43,0-.28.2-.44.56-.44,2.81,0,5.62,0,8.43,0,.11,0,.23,0,.34,0-.02-.02-.05-.04-.07-.06.15-.35.26-.72.47-1.03.28-.41.72-.59,1.23-.6.72-.01,1.45.03,2.17-.06,1.23-.15,2.13-1.2,2.2-2.44,0-.12.01-.29.08-.35.13-.1.32-.19.47-.17.23.02.32.22.31.45-.03.95-.37,1.77-1.05,2.43-.66.65-1.47.98-2.4,1-.58.01-1.16,0-1.74,0-.48,0-.76.3-.76.82.46,0,.92.01,1.38,0,.7-.03,1.42.02,2.1-.13,2.68-.6,4.08-3.64,2.83-6.09-.03-.06-.07-.12-.1-.18-1.36,1.8-3.76,1.39-4.65-.26-1.73,1.12-3.7-.11-3.71-1.93h-1.64c.04.16.07.33.12.49.02.05.11.09.17.1.11.02.23,0,.35,0,.25.02.43.19.43.42,0,.23-.16.42-.41.44-.15.01-.31,0-.48,0-.05.21-.09.42-.15.66.21,0,.39,0,.57,0,.29.02.48.19.48.44,0,.25-.19.42-.48.43-.06,0-.12.01-.17,0-.66-.13-1.06.16-1.4.71-.27.43-.64.83-1.03,1.16-.5.43-1.13.61-1.8.61-.64,0-1.27,0-1.91,0-.1,0-.21,0-.33,0v1.02c.1,0,.21.01.31.01,1.29,0,2.59,0,3.88,0,.1,0,.19,0,.29,0,.23.03.37.18.38.41.01.23-.12.38-.34.44-.09.02-.19.01-.29.01-2.13,0-4.27,0-6.4,0-.68,0-1.21.4-1.38,1.02-.01.05-.02.11-.03.2.47,0,.93,0,1.39,0,.1,0,.2,0,.29.03.22.07.33.23.31.46-.02.22-.16.37-.37.37-.64.01-1.28.02-1.91,0-.36-.02-.59-.34-.59-.74,0-1.16.97-2.17,2.14-2.2.47-.01.94,0,1.43,0v-1.08c-.18-.06-.36-.12-.54-.19-.58-.23-1.05-.61-1.41-1.12-.22-.31-.45-.61-.65-.92-.1-.15-.21-.22-.4-.21-.28.02-.56.01-.84,0-.28,0-.45-.18-.46-.42,0-.24.17-.41.44-.44.11,0,.21,0,.32,0,.09,0,.19,0,.3-.01-.05-.22-.09-.42-.14-.65-.16,0-.32,0-.48,0-.27-.02-.45-.2-.44-.44,0-.24.19-.41.46-.42.16,0,.32,0,.44,0,.19-.46.38-.87.53-1.29.05-.13.05-.3,0-.43-.35-.92-.59-1.86-.57-2.85,0-.12.01-.25.04-.37.2-1.18,1.02-1.62,2.12-1.15.69.3,1.26.78,1.79,1.3.32-.44.6-.9.94-1.3,1.24-1.44,2.84-2.19,4.73-2.3.59-.03,1.18-.01,1.77-.01.32,0,.51.16.52.42,0,.28-.19.43-.52.44-.86.03-1.73-.01-2.57.13-1.64.28-2.9,1.19-3.81,2.59-.03.04-.05.08-.07.13,0,.01,0,.04,0,.09.49,0,.97,0,1.46,0,.09,0,.17-.11.25-.17.53-.4,1.01-.88,1.59-1.2,1.32-.73,2.32-.12,2.37,1.39.03.97-.2,1.89-.54,2.79-.03.07-.06.14-.08.22,0,.02,0,.04,0,.08.11,0,.22,0,.34,0,2.01,0,4.02,0,6.03,0,1.07,0,2.07.21,2.98.78.09.06.22.08.33.08.68,0,1.35,0,2.03,0,.36,0,.73.05,1.14.07.68-1.47.36-3.08.45-4.64-.04-.01-.06-.03-.07-.02-.64.41-1.35.47-2.08.46-1-.02-2.01,0-3.01,0-1.33,0-2.25-.67-2.67-1.94-.09-.27-.12-.64-.32-.78-.18-.14-.54-.04-.82-.04-.26,0-.52,0-.78,0-.28,0-.45-.16-.46-.41-.01-.26.17-.45.46-.45.44,0,.89,0,1.37,0-.09-.29-.18-.55-.26-.8-.25-.02-.48-.02-.71-.06-.96-.19-1.65-.98-1.65-1.96,0-.52,0-1.05.12-1.55.21-.88.76-1.53,1.56-1.95.62-.33,1.26-.63,1.9-.92.92-.42,1.96-.14,2.54.69.1.14.19.17.36.14.72-.14,1.44-.14,2.16,0,.16.03.25,0,.36-.14.59-.83,1.61-1.12,2.54-.7.65.29,1.3.59,1.92.94,1.05.58,1.62,1.49,1.67,2.7.02.37.03.74-.03,1.1-.16,1-1.04,1.7-2.05,1.69-.09,0-.17,0-.27,0-.3.92-.6,1.84-.89,2.75-.03.08-.01.17-.02.26-.02,1.44-.03,2.88-.05,4.32,0,.03,0,.05.02.12.44,0,.88,0,1.32,0,.41,0,.84-.02,1.24.07,1.1.24,1.78.94,2.06,2.03.02.06.04.13.06.19v.58ZM41.01,31.53c.56,0,1.09.04,1.61,0,.74-.07,1.24-.49,1.48-1.2.28-.83.56-1.66.81-2.5.41-1.33-.02-2.7-1.09-3.56-1.85-1.49-4.73-1.47-6.54.05-.93.79-1.39,1.82-1.13,3.02.24,1.1.64,2.16,1,3.23.14.41.48.7.9.85.68.26,1.38.09,2.09.15,0-.36.02-.67,0-.98-.02-.18-.08-.37-.18-.51-.25-.34-.53-.66-.8-.99-.22-.27-.26-.58-.11-.89.15-.31.41-.44.75-.44.5,0,1,0,1.51,0,.36,0,.64.13.8.46.15.33.09.64-.14.91-.28.34-.56.69-.84,1.04-.05.06-.11.15-.11.22-.01.38,0,.77,0,1.17ZM21.72,38.07c.02.44.09.55.47.66.23.07.4.3.3.51-.11.21-.02.34.09.49.13.17.24.35.37.52.48.62,1.1.95,1.89.95.59,0,1.18-.05,1.77,0,1.31.12,2.27-.38,2.91-1.51,0,0,0-.02.02-.02.1-.11.12-.21.05-.36-.11-.24.02-.49.28-.57.41-.12.49-.23.48-.67-.61-.05-.82-.16-.79-.45.04-.51.45-.42.82-.45-.08-.2-.13-.37-.21-.53-.29-.62-.58-1.24-.89-1.85-.43-.86-1.14-1.31-2.11-1.32-.75,0-1.51,0-2.26,0-.97,0-1.67.46-2.11,1.32-.31.62-.61,1.25-.91,1.87-.07.16-.12.33-.19.5.62.04.79.14.81.43.02.3-.16.41-.8.48ZM33.66,36.57c0,.08-.02.12-.02.17.04,1.04,1.23,1.67,2.16,1.14.16-.09.34-.2.52-.23.44-.07.74.16.97.53.73,1.2,2.42,1.2,3.12,0,.09-.16.1-.26-.05-.4-.61-.57-1.32-.97-2.14-1.13-.24-.05-.48-.08-.72-.09-1.27,0-2.54,0-3.85,0ZM38.37,22.68c-.36-.45-.9-.58-1.44-.33-.61.28-1.23.55-1.82.89-.33.19-.64.48-.86.79-.49.66-.46,1.44-.33,2.2.1.6.75.97,1.28.83,0-2.22,1.2-3.57,3.16-4.37ZM42.78,22.68c2,.81,3.19,2.19,3.17,4.4.76.04,1.31-.44,1.33-1.16,0-.24,0-.48,0-.72-.04-.85-.42-1.51-1.15-1.92-.64-.36-1.31-.66-1.97-.96-.5-.22-1-.08-1.37.36ZM44.49,39.09c-.01-.74-.54-1.47-1.27-1.59-.63-.11-1.29-.08-1.92-.11.31.56.59,1.08.89,1.6.03.05.12.1.18.1.7,0,1.4,0,2.13,0ZM21.92,34.6c.4-.89,1.01-1.49,1.89-1.84-.44-.39-.87-.74-1.4-.92-.46-.16-.68-.04-.77.43-.14.78.03,1.52.27,2.33ZM28.27,32.68s.02.07.03.11c.86.33,1.45.94,1.85,1.8.24-.76.38-1.46.3-2.19-.06-.58-.35-.77-.86-.52-.46.22-.88.53-1.32.81ZM39.9,28.6c.25.31.46.56.68.84.23-.29.43-.54.67-.84-.38,0-.7,0-1.02,0-.09,0-.17,0-.33,0Z"/><path class="cls-1" d="M38.93,26.63h0c0-.11,0-.21,0-.32-.01-.25-.16-.4-.4-.42-.24-.02-.42.12-.45.36-.03.25-.03.5,0,.75.03.24.21.36.46.34.23-.02.36-.16.38-.39,0-.1,0-.21,0-.32ZM43.1,26.63s0,0,0,0c0-.1,0-.19,0-.29-.02-.26-.21-.45-.44-.44-.24,0-.41.19-.42.45,0,.19,0,.38,0,.58.01.25.14.4.39.42.25.02.41-.11.46-.34.03-.12.02-.25.02-.37Z"/><path class="cls-1" d="M25.59,38.17c-.21.18-.4.33-.58.48-.25.21-.29.45-.13.65.17.21.43.21.69,0,.16-.12.31-.25.47-.38.18.14.34.27.5.39.25.19.5.19.67-.01.17-.2.12-.47-.14-.68-.18-.15-.37-.3-.58-.46.17-.18.32-.34.46-.51.29-.37.08-.86-.38-.9-.35-.03-.69-.01-1.04,0-.24,0-.44.13-.48.35-.03.19.02.41.11.59.09.17.26.3.43.48ZM23.5,36.36s0,0,0,0c0,.12,0,.23,0,.35.02.24.16.37.38.4.23.02.42-.09.44-.32.03-.27.04-.56,0-.83-.03-.23-.22-.33-.45-.31-.21.02-.35.15-.38.37-.01.11,0,.23,0,.34ZM28.59,36.4c0-.14,0-.26-.02-.39-.03-.23-.18-.36-.41-.37-.23,0-.4.11-.42.35-.03.26-.02.52,0,.77.02.22.19.34.4.34.22,0,.38-.12.43-.35.02-.12.02-.25.02-.36Z"/><path class="cls-1" d="M39.9,28.6c.16,0,.24,0,.33,0,.32,0,.63,0,1.02,0-.24.3-.44.55-.67.84-.22-.27-.43-.53-.68-.84Z"/><path class="cls-1" d="M38.93,26.63c0,.11,0,.21,0,.32-.02.23-.15.37-.38.39-.25.02-.42-.1-.46-.34-.03-.24-.03-.5,0-.75.03-.24.21-.38.45-.36.24.02.38.17.4.42,0,.11,0,.21,0,.32h0Z"/><path class="cls-1" d="M43.1,26.63c0,.12,0,.25-.02.37-.05.24-.21.37-.46.34-.25-.02-.38-.17-.39-.42,0-.19,0-.38,0-.58.01-.27.18-.45.42-.45.23,0,.42.18.44.44,0,.1,0,.19,0,.29,0,0,0,0,0,0Z"/><path class="cls-1" d="M25.59,38.17c-.17-.18-.34-.31-.43-.48-.09-.17-.14-.4-.11-.59.04-.22.24-.34.48-.35.35,0,.7-.02,1.04,0,.46.04.67.53.38.9-.13.17-.29.33-.46.51.2.16.39.31.58.46.25.21.31.47.14.68-.16.2-.42.2-.67.01-.16-.12-.32-.25-.5-.39-.16.13-.31.26-.47.38-.26.21-.52.2-.69,0-.16-.21-.12-.44.13-.65.18-.16.37-.31.58-.48Z"/><path class="cls-1" d="M23.5,36.36c0-.12-.01-.23,0-.34.02-.22.16-.35.38-.37.23-.02.42.08.45.31.04.27.04.56,0,.83-.03.23-.22.34-.44.32-.22-.02-.37-.16-.38-.4,0-.11,0-.23,0-.35,0,0,0,0,0,0Z"/><path class="cls-1" d="M28.59,36.4c0,.11,0,.24-.02.36-.04.23-.2.35-.43.35-.21,0-.38-.12-.4-.34-.03-.26-.03-.52,0-.77.02-.23.2-.35.42-.35.23,0,.38.13.41.37.02.12.01.25.02.39Z"/></svg>